<svg width="459" height="173" viewBox="0 0 459 173" fill="none" xmlns="http://www.w3.org/2000/svg">
<path d="M81.3133 74.2007C95.3018 74.2007 105.573 86.6335 105.573 101.387C105.573 108.084 104.479 113.124 104.149 116.625C103.978 118.44 103.991 119.897 104.305 121.233C104.613 122.538 105.236 123.841 106.449 125.289C107.099 126.064 107.067 127.203 106.375 127.941C105.683 128.679 104.549 128.784 103.733 128.185C103.077 127.704 101.86 127.33 99.9832 127.184C98.1664 127.043 96.0137 127.135 93.7342 127.336C91.4576 127.538 89.152 127.839 86.9959 128.098C84.8897 128.352 82.8664 128.573 81.3133 128.573C67.393 128.573 56.4268 116.217 56.4266 101.387C56.4266 86.5573 67.3929 74.2008 81.3133 74.2007Z" stroke="#0F766E" stroke-width="4" stroke-linejoin="round"/>
<line x1="57" y1="100.102" x2="105" y2="100.102" stroke="#0F766E" stroke-width="4"/>
<line x1="81" y1="127.819" x2="81" y2="75.0001" stroke="#0F766E" stroke-width="4"/>
<path d="M62.0769 86.5889C69.157 89.367 73.599 90.2072 81.1158 90.1901C88.5431 90.1732 92.9271 89.3337 99.9231 86.5889" stroke="#0F766E" stroke-width="4"/>
<path d="M83 127C91.0713 119.943 95.0543 111.336 94.9994 101.07C94.9445 90.8036 90.9654 82.1585 83 75" stroke="#0F766E" stroke-width="4"/>
<path d="M79 127C70.9287 119.943 66.9457 111.336 67.0006 101.07C67.0555 90.8036 71.0346 82.1585 79 75" stroke="#0F766E" stroke-width="4"/>
<path d="M97.6573 115.387C91.8698 113.442 87.7144 112.828 81.1158 112.814C73.599 112.798 69.2098 113.575 62.0769 116.184" stroke="#0F766E" stroke-width="4" stroke-linecap="round"/>
<path d="M9.6 44H19.8V118.4H52.8V128H9.6V44ZM156.197 94.4C156.197 89.84 155.197 86.4 153.197 84.08C151.197 81.76 148.277 80.6 144.437 80.6C141.637 80.6 139.157 81.2 136.997 82.4C134.917 83.52 133.277 85.12 132.077 87.2C130.957 89.28 130.397 91.68 130.397 94.4V128H120.797V72.8H130.397V81.44C132.237 78.08 134.517 75.6 137.237 74C140.037 72.4 143.237 71.6 146.837 71.6C152.677 71.6 157.277 73.56 160.637 77.48C164.077 81.32 165.797 86.56 165.797 93.2V128H156.197V94.4ZM180.124 131.6H189.844C189.844 134.24 190.564 136.68 192.004 138.92C193.444 141.24 195.484 143.08 198.124 144.44C200.764 145.88 203.884 146.6 207.484 146.6C210.284 146.6 213.044 145.92 215.764 144.56C218.484 143.2 220.724 141.04 222.484 138.08C224.324 135.2 225.244 131.44 225.244 126.8V72.8H234.844V126.8C234.844 133.12 233.524 138.4 230.884 142.64C228.244 146.96 224.844 150.2 220.684 152.36C216.524 154.52 212.124 155.6 207.484 155.6C202.124 155.6 197.364 154.6 193.204 152.6C189.124 150.6 185.924 147.76 183.604 144.08C181.284 140.48 180.124 136.32 180.124 131.6ZM179.044 100.4C179.044 94.4 180.284 89.28 182.764 85.04C185.244 80.72 188.564 77.4 192.724 75.08C196.884 72.76 201.444 71.6 206.404 71.6C211.044 71.6 215.084 72.76 218.524 75.08C221.964 77.4 224.644 80.72 226.564 85.04C228.564 89.28 229.564 94.4 229.564 100.4C229.564 106.32 228.564 111.44 226.564 115.76C224.644 120.08 221.964 123.4 218.524 125.72C215.084 128.04 211.044 129.2 206.404 129.2C201.444 129.2 196.884 128.04 192.724 125.72C188.564 123.4 185.244 120.08 182.764 115.76C180.284 111.44 179.044 106.32 179.044 100.4ZM188.764 100.4C188.764 104.64 189.604 108.24 191.284 111.2C193.044 114.16 195.364 116.4 198.244 117.92C201.124 119.44 204.244 120.2 207.604 120.2C210.404 120.2 213.164 119.44 215.884 117.92C218.604 116.4 220.844 114.16 222.604 111.2C224.364 108.24 225.244 104.64 225.244 100.4C225.244 97.2 224.724 94.4 223.684 92C222.644 89.52 221.244 87.44 219.484 85.76C217.804 84.08 215.924 82.8 213.844 81.92C211.764 81.04 209.684 80.6 207.604 80.6C204.244 80.6 201.124 81.36 198.244 82.88C195.364 84.4 193.044 86.64 191.284 89.6C189.604 92.56 188.764 96.16 188.764 100.4ZM252.281 34.4H261.881V128H252.281V34.4ZM279.938 50C279.938 48.16 280.578 46.6 281.858 45.32C283.218 44.04 284.778 43.4 286.538 43.4C288.378 43.4 289.938 44.04 291.218 45.32C292.498 46.6 293.138 48.16 293.138 50C293.138 51.76 292.498 53.32 291.218 54.68C289.938 55.96 288.378 56.6 286.538 56.6C284.778 56.6 283.218 55.96 281.858 54.68C280.578 53.32 279.938 51.76 279.938 50ZM281.738 72.8H291.338V128H281.738V72.8ZM320.709 106.4C320.709 110.8 321.709 114.2 323.709 116.6C325.709 119 328.629 120.2 332.469 120.2C335.269 120.2 337.709 119.64 339.789 118.52C341.949 117.32 343.589 115.68 344.709 113.6C345.909 111.52 346.509 109.12 346.509 106.4V72.8H356.109V128H346.509V119.36C344.669 122.64 342.389 125.12 339.669 126.8C336.949 128.4 333.749 129.2 330.069 129.2C324.309 129.2 319.709 127.24 316.269 123.32C312.829 119.4 311.109 114.16 311.109 107.6V72.8H320.709V106.4ZM449.756 93.2V128H440.156V94.4C440.156 89.68 439.276 86.2 437.516 83.96C435.836 81.72 433.196 80.6 429.596 80.6C426.956 80.6 424.676 81.16 422.756 82.28C420.836 83.32 419.356 84.88 418.316 86.96C417.276 89.04 416.756 91.52 416.756 94.4V128H407.156V94.4C407.156 89.68 406.276 86.2 404.516 83.96C402.836 81.72 400.196 80.6 396.596 80.6C393.956 80.6 391.676 81.16 389.756 82.28C387.836 83.32 386.356 84.88 385.316 86.96C384.276 89.04 383.756 91.52 383.756 94.4V128H374.156V72.8H383.756V80.84C385.436 77.72 387.516 75.4 389.996 73.88C392.556 72.36 395.556 71.6 398.996 71.6C402.836 71.6 406.116 72.52 408.836 74.36C411.636 76.12 413.676 78.64 414.956 81.92C416.876 78.48 419.276 75.92 422.156 74.24C425.036 72.48 428.316 71.6 431.996 71.6C435.756 71.6 438.956 72.44 441.596 74.12C444.236 75.8 446.236 78.28 447.596 81.56C449.036 84.76 449.756 88.64 449.756 93.2Z" fill="#0F766E"/>
</svg>
